<?xml version="1.0" encoding="UTF-8"?>
<svg width="536px" height="76px" viewBox="0 0 536 76" version="1.1" xmlns="http://www.w3.org/2000/svg" xmlns:xlink="http://www.w3.org/1999/xlink">
    <title>logo-full-white</title>
    <g id="logo-full-white" stroke="none" stroke-width="1" fill="none" fill-rule="evenodd">
        <g id="meteor-dots" transform="translate(0.000000, 1.000000)" fill="#F25C03">
            <circle id="Oval-Copy-4" cx="20.5" cy="54.5" r="20.5"></circle>
            <circle id="Oval-Copy-5" cx="57.5" cy="28.5" r="14.5"></circle>
            <circle id="Oval-Copy-6" cx="89.5" cy="14.5" r="9.5"></circle>
            <circle id="Oval-Copy-7" cx="118" cy="6" r="6"></circle>
        </g>
        <path d="M127.902,61.42 C130.17,61.42 132.186,61.077 133.95,60.391 C135.714,59.705 137.1,58.683 138.108,57.325 C139.116,55.967 139.62,54.308 139.62,52.348 C139.62,50.304 138.976,48.666 137.688,47.434 C136.4,46.202 134.37,45.264 131.598,44.62 L131.598,44.62 L126.936,43.57 C125.704,43.29 124.815,42.947 124.269,42.541 C123.723,42.135 123.45,41.638 123.45,41.05 C123.45,40.546 123.59,40.098 123.87,39.706 C124.15,39.314 124.612,39.006 125.256,38.782 C125.9,38.558 126.74,38.446 127.776,38.446 C129.54,38.446 131.115,38.761 132.501,39.391 C133.887,40.021 135.182,40.966 136.386,42.226 L136.386,42.226 L139.872,37.564 C138.416,36.024 136.701,34.855 134.727,34.057 C132.753,33.259 130.478,32.86 127.902,32.86 C125.41,32.86 123.268,33.252 121.476,34.036 C119.684,34.82 118.312,35.891 117.36,37.249 C116.408,38.607 115.932,40.154 115.932,41.89 C115.932,43.43 116.282,44.711 116.982,45.733 C117.682,46.755 118.641,47.567 119.859,48.169 C121.077,48.771 122.47,49.254 124.038,49.618 L124.038,49.618 L129.162,50.752 C130.338,51.032 131.136,51.375 131.556,51.781 C131.976,52.187 132.186,52.684 132.186,53.272 C132.186,53.804 132.032,54.266 131.724,54.658 C131.416,55.05 130.933,55.344 130.275,55.54 C129.617,55.736 128.798,55.834 127.818,55.834 C126.558,55.834 125.319,55.652 124.101,55.288 C122.883,54.924 121.763,54.427 120.741,53.797 C119.719,53.167 118.858,52.446 118.158,51.634 L118.158,51.634 L114.672,56.464 C115.596,57.444 116.73,58.312 118.074,59.068 C119.418,59.824 120.93,60.405 122.61,60.811 C124.29,61.217 126.054,61.42 127.902,61.42 Z M161.940393,61 L161.940393,38.866 L170.970393,38.866 L170.970393,33.28 L145.644393,33.28 L145.644393,38.866 L154.716393,38.866 L154.716393,61 L161.940393,61 Z M186.192709,61 L186.192709,50.878 L190.521,50.878 L196.440709,61 L204.420709,61 L197.198,49.808 L197.258002,49.7888582 C198.222652,49.4606389 199.073688,49.0188053 199.811109,48.4633573 L200.052709,48.274 C201.872709,46.79 202.782709,44.634 202.782709,41.806 C202.782709,39.23 201.865709,37.165 200.031709,35.611 C198.197709,34.057 195.628709,33.28 192.324709,33.28 L192.324709,33.28 L179.094709,33.28 L179.094709,61 L186.192709,61 Z M191.316709,45.754 L186.192709,45.754 L186.192709,38.74 L191.316709,38.74 C192.716709,38.74 193.766709,39.02 194.466709,39.58 C195.166709,40.14 195.516709,41.022 195.516709,42.226 C195.516709,43.458 195.166709,44.354 194.466709,44.914 C193.766709,45.474 192.716709,45.754 191.316709,45.754 L191.316709,45.754 Z M234.166668,61 L234.166668,55.414 L219.256668,55.414 L219.256668,49.744 L230.680668,49.744 L230.680668,44.494 L219.256668,44.494 L219.256668,38.866 L233.620668,38.866 L233.620668,33.28 L212.032668,33.28 L212.032668,61 L234.166668,61 Z M246.89428,61 L248.838,54.742 L258.388,54.742 L260.29228,61 L267.72628,61 L258.02428,33.28 L249.37228,33.28 L239.62828,61 L246.89428,61 Z M256.893,49.828 L250.364,49.828 L252.43828,43.15 L253.57228,38.824 L253.65628,38.824 L254.87428,43.192 L256.893,49.828 Z M281.40305,61 L281.40305,48.274 L281.19305,39.748 L281.27705,39.748 L288.12305,61 L293.96105,61 L300.80705,39.748 L300.89105,39.748 L300.68105,48.274 L300.68105,61 L307.06505,61 L307.06505,33.28 L297.19505,33.28 L292.86905,47.434 L291.27305,53.272 L291.18905,53.272 L289.63505,47.392 L285.26705,33.28 L274.97705,33.28 L274.97705,61 L281.40305,61 Z M323.639754,61 L323.639754,48.274 L323.429754,39.748 L323.513754,39.748 L330.359754,61 L336.197754,61 L343.043754,39.748 L343.127754,39.748 L342.917754,48.274 L342.917754,61 L349.301754,61 L349.301754,33.28 L339.431754,33.28 L335.105754,47.434 L333.509754,53.272 L333.425754,53.272 L331.871754,47.392 L327.503754,33.28 L317.213754,33.28 L317.213754,61 L323.639754,61 Z M363.818458,61 L365.762,54.742 L375.312,54.742 L377.216458,61 L384.650458,61 L374.948458,33.28 L366.296458,33.28 L356.552458,61 L363.818458,61 Z M373.817,49.828 L367.288,49.828 L369.362458,43.15 L370.496458,38.824 L370.580458,38.824 L371.798458,43.192 L373.817,49.828 Z M403.325228,61.42 C405.285228,61.42 407.077228,61.133 408.701228,60.559 C410.325228,59.985 411.725228,59.075 412.901228,57.829 C414.077228,56.583 414.931228,54.994 415.463228,53.062 L415.463228,53.062 L408.911228,51.214 C408.575228,52.754 407.938228,53.895 407.000228,54.637 C406.062228,55.379 404.921228,55.75 403.577228,55.75 C402.149228,55.75 400.952228,55.428 399.986228,54.784 C399.020228,54.14 398.299228,53.174 397.823228,51.886 C397.347228,50.598 397.109228,49.016 397.109228,47.14 C397.109228,45.236 397.368228,43.647 397.886228,42.373 C398.404228,41.099 399.146228,40.14 400.112228,39.496 C401.078228,38.852 402.219228,38.53 403.535228,38.53 C404.879228,38.53 405.992228,38.852 406.874228,39.496 C407.756228,40.14 408.393228,41.33 408.785228,43.066 L408.785228,43.066 L415.127228,40.504 C414.651228,38.74 413.853228,37.298 412.733228,36.178 C411.613228,35.058 410.241228,34.225 408.617228,33.679 C406.993228,33.133 405.215228,32.86 403.283228,32.86 C400.511228,32.86 398.103228,33.427 396.059228,34.561 C394.015228,35.695 392.447228,37.326 391.355228,39.454 C390.263228,41.582 389.717228,44.144 389.717228,47.14 C389.717228,50.136 390.263228,52.698 391.355228,54.826 C392.447228,56.954 394.015228,58.585 396.059228,59.719 C398.103228,60.853 400.525228,61.42 403.325228,61.42 Z M430.702437,61 L430.702,49.828 L441.286,49.828 L441.286437,61 L448.510437,61 L448.510437,33.28 L441.286437,33.28 L441.286,44.242 L430.702,44.242 L430.702437,33.28 L423.478437,33.28 L423.478437,61 L430.702437,61 Z M465.858024,61 L465.858024,33.28 L458.634024,33.28 L458.634024,61 L465.858024,61 Z M482.382386,61 L482.382386,47.014 L482.214386,41.89 L482.256386,41.89 L484.356386,46.006 L492.966386,61 L500.988386,61 L500.988386,33.28 L494.604386,33.28 L494.604386,47.266 L494.772386,52.39 L494.730386,52.39 L492.630386,48.274 L484.020386,33.28 L475.998386,33.28 L475.998386,61 L482.382386,61 Z M533.262773,61 L533.262773,55.414 L518.352773,55.414 L518.352773,49.744 L529.776773,49.744 L529.776773,44.494 L518.352773,44.494 L518.352773,38.866 L532.716773,38.866 L532.716773,33.28 L511.128773,33.28 L511.128773,61 L533.262773,61 Z" id="STREAMMACHINE" fill="#FFFFFF" fill-rule="nonzero"></path>
    </g>
</svg>